<svg width="100%" height="120" viewBox="0 0 1200 120" xmlns="http://www.w3.org/2000/svg">
  <defs>
    <linearGradient id="borderGradient" x1="0%" y1="0%" x2="100%" y2="0%">
      <stop offset="0%" style="stop-color:#2d4628;stop-opacity:0.6" />
      <stop offset="50%" style="stop-color:#6b8e23;stop-opacity:0.4" />
      <stop offset="100%" style="stop-color:#bfa37e;stop-opacity:0.3" />
    </linearGradient>
  </defs>
  
  <!-- Patrón de borde decorativo -->
  <path d="M0,60 Q150,20 300,60 T600,60 T900,60 T1200,60 L1200,120 L0,120 Z" 
        fill="url(#borderGradient)" 
        opacity="0.3"/>
  
  <!-- Elementos decorativos adicionales -->
  <circle cx="200" cy="40" r="3" fill="#2d4628" opacity="0.4"/>
  <circle cx="400" cy="50" r="2" fill="#6b8e23" opacity="0.3"/>
  <circle cx="600" cy="45" r="4" fill="#bfa37e" opacity="0.3"/>
  <circle cx="800" cy="55" r="2.5" fill="#2d4628" opacity="0.3"/>
  <circle cx="1000" cy="42" r="3.5" fill="#6b8e23" opacity="0.3"/>
  
  <!-- Líneas decorativas -->
  <path d="M100,30 Q150,50 200,30" stroke="#2d4628" stroke-width="1" fill="none" opacity="0.2"/>
  <path d="M500,35 Q550,55 600,35" stroke="#6b8e23" stroke-width="1" fill="none" opacity="0.2"/>
  <path d="M700,40 Q750,60 800,40" stroke="#bfa37e" stroke-width="1" fill="none" opacity="0.2"/>
  <path d="M900,32 Q950,52 1000,32" stroke="#2d4628" stroke-width="1" fill="none" opacity="0.2"/>
</svg>